<?xml version="1.0" encoding="utf-8"?>
<!-- Generator: Adobe Illustrator 28.3.0, SVG Export Plug-In . SVG Version: 6.00 Build 0)  -->
<svg version="1.1" id="Layer_1" xmlns="http://www.w3.org/2000/svg" xmlns:xlink="http://www.w3.org/1999/xlink" x="0px" y="0px"
	 viewBox="0 0 1000 226.6" style="enable-background:new 0 0 1000 226.6;" xml:space="preserve">
<style type="text/css">
	.st0{fill:#75787B;}
	.st1{fill:#9D2235;}
	.st2{fill:#FFFFFF;}
</style>
<g id="logoMain_00000067954736908344914370000003140093384952190092_">
	<g>
		<g>
			<g>
				<path class="st0" d="M248.3,46.6c0-11.8,8.7-20,19.4-20c3.9,0,7.1,0.9,9.6,2.2l2.3-2.5h0.5v12.9h-0.7
					c-2.9-7.5-6.8-11.6-12.5-11.6c-6.3,0-11.7,5.7-11.7,18.4c0,12.5,6.7,17.5,13.1,17.5c6.1,0,10.4-3.8,12.7-8.9L282,55
					c-2.3,5.2-7,10.5-15.5,10.5C255.6,65.5,248.3,58.1,248.3,46.6"/>
				<path class="st0" d="M300.5,59.5v-7.9c-7.1,1.4-8.6,2.9-8.6,6.5c0,2.6,1.2,4.4,3.9,4.4C297.8,62.5,299.5,61,300.5,59.5
					 M285.9,59c0-2.1,1-4.2,3.2-5.4c3.9-2.2,10.2-2.5,11.4-3.1v-3.8c0-4-1.2-5.9-4.3-5.9c-1.8,0-3.5,0.6-4.4,1.5
					c0.9,0.9,1.4,1.8,1.4,2.9c0,1.9-1.1,3.1-3.2,3.1c-1.9,0-3.1-1.4-3.1-3.1c0-3.1,3.9-5.4,9.9-5.4c6,0,9.2,2.3,9.2,7.8v12.4
					c0,2.6,1,3.7,4,2.4l0.2,0.5c-1.9,1.2-3.2,1.8-5.1,1.8c-3,0-4.1-1.2-4.4-4.1h-0.2c-2,2.3-4.5,4.2-7.8,4.2
					C288,64.9,285.9,62,285.9,59"/>
				<path class="st0" d="M311.2,64c3.1,0,3.8-0.4,3.8-2V30.1c0-1.8-0.5-2.6-4.3-2.7v-0.6l9.8-0.3V62c0,1.6,0.7,2,3.8,2v0.6h-13.2V64
					z"/>
				<path class="st0" d="M329.7,32c0-2.2,1.4-3.7,3.5-3.7c2.1,0,3.5,1.4,3.5,3.5c0,2.1-1.4,3.6-3.5,3.6
					C331.1,35.4,329.7,34.1,329.7,32 M326.8,64c3.1,0,3.9-0.4,3.9-2V43.7c0-1.6-0.8-2.6-3.9-2.7v-0.6l9.5-0.4v22c0,1.6,0.6,2,3.9,2
					v0.6h-13.4V64z"/>
				<path class="st0" d="M342.6,64c3,0,3.8-0.4,3.8-2V42h-4.6v-0.7l4.6-1.2v-2c0-4.5,1.1-7.4,3-9.3c1.8-1.8,4.1-2.7,6.8-2.7
					c4.6,0,6.9,2,6.9,4.3c0,1.9-1.1,3.2-3,3.2c-1.7,0-3.2-0.9-3.2-3.4c0-0.7,0.5-1.9,0.8-2.4c-0.5-0.4-1.2-0.7-2-0.7
					c-0.9,0-1.5,0.3-2.2,0.9c-1,1-1.5,2.8-1.5,6.9v5.4h6.8V42H352v20c0,1.6,1.2,1.9,5.1,2v0.6h-14.4V64z"/>
				<path class="st0" d="M378.8,52.3c0-8.3-2.4-11.7-6.4-11.7c-4,0-6,3.4-6,11.7c0,8.3,2.5,11.7,6.5,11.7
					C376.8,64,378.8,60.6,378.8,52.3 M360.2,52.4c0-7.6,5.6-12.8,12.5-12.8c7,0,12.4,5,12.4,12.6c0,7.6-5.6,12.8-12.4,12.8
					C365.5,65.1,360.2,60,360.2,52.4"/>
				<path class="st0" d="M387.8,64c3,0,3.8-0.4,3.8-2V43.7c0-1.6-0.7-2.6-3.8-2.7v-0.6l9.3-0.4v5.4c1.9-3.5,4.5-5.6,7.2-5.6
					c2.9,0,4.3,1.8,4.3,3.9c0,2-1.3,3.5-3.2,3.5c-2,0-3.4-1.4-3.4-3.3c0-0.5,0.2-1.2,0.3-1.7c-2.1,0.3-3.5,1.8-5.1,4.4V62
					c0,1.6,1,1.9,4.6,2v0.6h-14V64z"/>
				<path class="st0" d="M409.9,64c3,0,3.8-0.4,3.8-2V43.7c0-1.6-0.7-2.6-3.8-2.7v-0.6l9.3-0.4v5.7c2.4-3.8,5.6-5.9,9.2-5.9
					c4.2,0,6.5,2.6,6.5,7.4V62c0,1.6,0.7,2,3.8,2v0.6h-12.6V64c2.4,0,3.2-0.4,3.2-2V48.3c0-3.8-1.1-5.8-4.3-5.8
					c-2.3,0-4.3,1.8-5.7,4.5v15c0,1.6,0.7,2,3.1,2v0.6h-12.5V64z"/>
				<path class="st0" d="M443.2,32c0-2.2,1.4-3.7,3.5-3.7c2.1,0,3.5,1.4,3.5,3.5c0,2.1-1.4,3.6-3.5,3.6
					C444.6,35.4,443.2,34.1,443.2,32 M440.3,64c3.1,0,3.9-0.4,3.9-2V43.7c0-1.6-0.8-2.6-3.9-2.7v-0.6l9.5-0.4v22c0,1.6,0.6,2,3.9,2
					v0.6h-13.4V64z"/>
				<path class="st0" d="M471.1,59.5v-7.9c-7.1,1.4-8.6,2.9-8.6,6.5c0,2.6,1.2,4.4,3.9,4.4C468.4,62.5,470.1,61,471.1,59.5
					 M456.6,59c0-2.1,1-4.2,3.2-5.4c3.9-2.2,10.2-2.5,11.4-3.1v-3.8c0-4-1.2-5.9-4.3-5.9c-1.8,0-3.5,0.6-4.4,1.5
					c0.9,0.9,1.4,1.8,1.4,2.9c0,1.9-1.1,3.1-3.2,3.1c-1.9,0-3.1-1.4-3.1-3.1c0-3.1,3.9-5.4,9.9-5.4c6,0,9.2,2.3,9.2,7.8v12.4
					c0,2.6,1,3.7,4,2.4l0.2,0.5c-1.9,1.2-3.2,1.8-5.1,1.8c-3,0-4.1-1.2-4.4-4.1h-0.2c-2,2.3-4.5,4.2-7.8,4.2
					C458.6,64.9,456.6,62,456.6,59"/>
				<path class="st0" d="M490.2,52.3h0.7c3.2,7.1,7,12,12.7,12c5.2,0,7.8-3.5,7.8-6.9c0-4.7-3.2-6.5-9.8-8.8
					c-5.3-1.9-10.9-3.6-10.9-10.4c0-7,5.4-11.4,12.6-11.4c3.1,0,6.1,0.9,8,1.8l1.9-2.1h0.6v11.9h-0.7c-2.9-7-6.3-10.5-10.6-10.5
					c-3.6,0-6.9,2.3-6.9,6.5c0,4.6,3.5,6.3,9.6,8.3c5.1,1.7,10.5,3.6,10.5,10.5c0,5.9-3.5,12.2-12.7,12.2c-3,0-6.6-1.1-8.9-2.4
					l-3.2,2.6h-0.6V52.3z"/>
				<path class="st0" d="M523.3,58.1V42h-5v-0.7l5-1.2v-6.8l5.6-2v8.9h7.6V42h-7.6v16.6c0,3.2,0.9,4.4,3.1,4.4
					c1.5,0,3.1-1.1,4.5-3.6l0.6,0.4c-1.7,3.5-4,5.3-7.4,5.3C525.5,65.2,523.3,63,523.3,58.1"/>
				<path class="st0" d="M553.5,59.5v-7.9c-7.1,1.4-8.6,2.9-8.6,6.5c0,2.6,1.2,4.4,3.9,4.4C550.8,62.5,552.5,61,553.5,59.5 M539,59
					c0-2.1,1-4.2,3.2-5.4c3.9-2.2,10.2-2.5,11.4-3.1v-3.8c0-4-1.2-5.9-4.3-5.9c-1.8,0-3.5,0.6-4.4,1.5c0.9,0.9,1.4,1.8,1.4,2.9
					c0,1.9-1.1,3.1-3.2,3.1c-1.9,0-3.1-1.4-3.1-3.1c0-3.1,3.9-5.4,9.9-5.4c6,0,9.2,2.3,9.2,7.8v12.4c0,2.6,1,3.7,4,2.4l0.2,0.5
					c-1.9,1.2-3.2,1.8-5.1,1.8c-3,0-4.1-1.2-4.4-4.1h-0.2c-2,2.3-4.5,4.2-7.8,4.2C541,64.9,539,62,539,59"/>
				<path class="st0" d="M568.1,58.1V42h-5v-0.7l5-1.2v-6.8l5.6-2v8.9h7.6V42h-7.6v16.6c0,3.2,0.9,4.4,3.1,4.4
					c1.5,0,3.1-1.1,4.5-3.6l0.6,0.4c-1.7,3.5-4,5.3-7.4,5.3C570.3,65.2,568.1,63,568.1,58.1"/>
				<path class="st0" d="M589.5,50h10.3c0.5-5.9-0.8-9.4-4.8-9.4C591.8,40.7,589.8,43.9,589.5,50 M583.3,52.7c0-7.6,5.5-13,12-13
					c7.1,0,10.8,5,10.4,11.3h-16.3v1.2v0.1c0,6.2,2.8,10.6,8.4,10.6c3.4,0,5.3-1.7,7.5-4.5l0.6,0.4c-2.1,3.5-5.2,6.2-10.5,6.2
					C588.2,65.1,583.3,60,583.3,52.7"/>
				<path class="st0" d="M619,53.8V31.7c0-2.1-1.2-3.4-5.8-3.5v-0.6h17.4v0.6c-4.5,0.2-5.4,1.3-5.4,3.5v21.5c0,8,4.8,10.5,10.8,10.5
					c2.7,0,5.2-0.8,6.8-2.4c1.9-1.9,3-4.6,3-8.6V36.4c0-5.2-1.8-7.5-7.1-8.2v-0.6h14.7v0.6c-5,0.8-6.2,3-6.2,8.2v16.7
					c0,7.5-4.2,12.5-13.7,12.5C624.2,65.5,619,61.5,619,53.8"/>
				<path class="st0" d="M652.7,64c3,0,3.8-0.4,3.8-2V43.7c0-1.6-0.7-2.6-3.8-2.7v-0.6L662,40v5.7c2.4-3.8,5.6-5.9,9.2-5.9
					c4.2,0,6.5,2.6,6.5,7.4V62c0,1.6,0.7,2,3.8,2v0.6h-12.6V64c2.5,0,3.2-0.4,3.2-2V48.3c0-3.8-1.1-5.8-4.3-5.8
					c-2.3,0-4.3,1.8-5.7,4.5v15c0,1.6,0.7,2,3.1,2v0.6h-12.5V64z"/>
				<path class="st0" d="M686.1,32c0-2.2,1.4-3.7,3.5-3.7c2.1,0,3.5,1.4,3.5,3.5c0,2.1-1.4,3.6-3.5,3.6
					C687.4,35.4,686.1,34.1,686.1,32 M683.1,64c3.1,0,3.9-0.4,3.9-2V43.7c0-1.6-0.8-2.6-3.9-2.7v-0.6l9.5-0.4v22c0,1.6,0.6,2,3.9,2
					v0.6h-13.4V64z"/>
				<path class="st0" d="M700.8,44.7c-1.1-2.8-2.1-3.7-4.6-4v-0.6h13.1v0.6c-2.3,0.2-3.1,0.8-3.1,1.9c0,0.4,0.1,0.8,0.3,1.5l5.7,15
					h0.2l4.8-12.2c0.5-1.4,0.9-2.6,0.9-3.3c0-1.7-1.2-2.4-3.8-2.8v-0.6h9.7v0.6c-1.9,0.3-3.6,1.8-4.7,4.6L711,65h-2L700.8,44.7z"/>
				<path class="st0" d="M729.9,50h10.3c0.5-5.9-0.8-9.4-4.8-9.4C732.2,40.7,730.3,43.9,729.9,50 M723.8,52.7c0-7.6,5.5-13,12-13
					c7.1,0,10.8,5,10.4,11.3h-16.3v1.2v0.1c0,6.2,2.8,10.6,8.4,10.6c3.3,0,5.3-1.7,7.5-4.5l0.6,0.4c-2.1,3.5-5.2,6.2-10.5,6.2
					C728.7,65.1,723.8,60,723.8,52.7"/>
				<path class="st0" d="M748.9,64c3,0,3.8-0.4,3.8-2V43.7c0-1.6-0.7-2.6-3.8-2.7v-0.6l9.3-0.4v5.4c1.9-3.5,4.5-5.6,7.2-5.6
					c2.9,0,4.3,1.8,4.3,3.9c0,2-1.3,3.5-3.2,3.5c-2,0-3.4-1.4-3.4-3.3c0-0.5,0.2-1.2,0.3-1.7c-2.1,0.3-3.5,1.8-5.1,4.4V62
					c0,1.6,1,1.9,4.6,2v0.6h-14V64z"/>
				<path class="st0" d="M771.9,56.2h0.7c3.4,5.9,5.4,7.8,9.3,7.8c3,0,4.6-2,4.6-4.1c0-2.4-1.5-3.8-6.8-5.3
					c-5.4-1.5-7.7-3.2-7.7-7.2c0-4.6,3.5-7.8,9-7.8c2.3,0,4.6,0.8,6,1.7l1.3-1.7h0.6v7.9h-0.7c-3.1-5-4.6-6.9-7.9-6.9
					c-2.4,0-4.3,1.7-4.3,4.1c0,2.3,2.1,3.5,6.2,4.5c5.4,1.5,8,3.4,8,7.6c0,4.5-3.2,8.2-9,8.2c-2,0-5.4-0.9-7-1.9l-1.8,1.9h-0.6V56.2
					z"/>
				<path class="st0" d="M796.3,32c0-2.2,1.4-3.7,3.5-3.7c2.1,0,3.5,1.4,3.5,3.5c0,2.1-1.4,3.6-3.5,3.6
					C797.7,35.4,796.3,34.1,796.3,32 M793.4,64c3.1,0,3.9-0.4,3.9-2V43.7c0-1.6-0.8-2.6-3.9-2.7v-0.6l9.5-0.4v22c0,1.6,0.6,2,3.9,2
					v0.6h-13.4V64z"/>
				<path class="st0" d="M812.7,58.1V42h-5v-0.7l5-1.2v-6.8l5.6-2v8.9h11.7V42h-11.7v16.6c0,3.2,0.9,4.4,3.1,4.4
					c1.5,0,3.1-1.1,4.5-3.6l0.6,0.4c-1.7,3.5-4,5.3-7.4,5.3C814.9,65.2,812.7,63,812.7,58.1"/>
				<path class="st0" d="M830.1,44.9c-1.3-2.8-2.2-3.7-4.8-4v-0.6h13.2v0.6c-3.2,0.3-3.6,1.4-2.7,3.3l6.3,14.6l4.7-12.1
					c1.7-4.3,0.9-5.3-2.9-5.9v-0.6h9.6v0.6c-1.9,0.3-3.5,1.5-4.7,4.4l-8.7,21.3c-2.8,6.8-5.4,8.7-8.4,8.7c-2.6,0-4.2-1.7-4.2-3.8
					c0-1.7,1-3.2,3-3.2c1.6,0,3,1.4,3,3.2c0,1.1-0.5,2.1-1.2,2.7c2.1-0.3,4.1-1.8,6.8-8.2l0.3-0.7L830.1,44.9z"/>
				<path class="st1" d="M859.1,46.8c0-12.7,9.3-20.2,20.2-20.2c3.9,0,7.4,1.1,9.9,2.5l2.5-2.8h0.6v14.5h-0.8
					c-3.8-8.1-7-13.3-13.1-13.3c-5.9,0-9.5,6.6-9.5,17.9c0,11.7,5,17.8,11.8,17.8c5.5,0,9.2-2.4,11.9-8.4l1,0.5
					c-2.3,5.2-6.7,10.1-16,10.1C865.9,65.5,859.1,58.5,859.1,46.8"/>
				<path class="st1" d="M896.4,64c3,0,3.6-0.6,3.6-1.9V30.4c0-1.6-0.5-2.6-3.8-2.6v-0.6l12-0.6v18.4c2.2-3.1,5.8-5.2,9.2-5.2
					c4.7,0,6.8,2.8,6.8,7.9v14.5c0,1.3,0.5,1.8,3.6,1.9v0.6h-14.5V64c1.9,0,2.7-0.6,2.7-1.9V47.7c0-2.8-1.2-4.4-3.6-4.4
					c-1.7,0-2.9,1.1-4.3,2.7v16.2c0,1.3,0.8,1.8,2.7,1.9v0.6h-14.4V64z"/>
				<path class="st1" d="M932.2,31.6c0-2.9,1.9-4.8,4.7-4.8c2.9,0,4.7,1.8,4.7,4.6c0,2.9-1.9,4.8-4.7,4.8
					C934.1,36.2,932.2,34.6,932.2,31.6 M929.1,64c3,0,3.8-0.6,3.8-1.9V43.7c0-1.6-0.8-2.6-3.8-2.6v-0.6l12-0.6v22.3
					c0,1.3,0.5,1.8,3.6,1.9v0.6h-15.6V64z"/>
				<path class="st1" d="M946.6,52.7c0-8.4,5.7-13.1,13.6-13.1c7.6,0,10.4,3.3,10.4,6.1c0,2.6-1.5,4.3-4.2,4.3c-3,0-4.4-1.9-4.4-4
					c0-1.8,1.1-3.1,2.1-3.6c-0.5-0.9-1.7-1.8-3.6-1.8c-3.3,0-5.2,4.7-5.2,11.7c0,5.4,2.1,10.7,7.2,10.7c2.7,0,5.8-1.6,7.8-4.3
					l0.6,0.4c-2.5,3.9-6,6.2-11.2,6.2C951.6,65.1,946.6,60.5,946.6,52.7"/>
				<path class="st1" d="M991.3,52.2c0-7.2-1.2-11.7-4.8-11.7c-3.6,0-4.3,4.5-4.3,11.7c0,7.2,1.2,11.8,4.8,11.8
					C990.5,64,991.3,59.4,991.3,52.2 M973.6,52.3c0-7.9,5.1-12.8,13.3-12.8c8.4,0,13.2,4.7,13.2,12.6c0,8-5.1,12.9-13.2,12.9
					C978.3,65.1,973.6,60.3,973.6,52.3"/>
			</g>
			<g>
				<g>
					<path class="st0" d="M248,111.4v-0.1c0-13,9.7-23.7,23.6-23.7c8.4,0,13.5,2.9,17.9,7.1l-5.2,6c-3.7-3.4-7.6-5.7-12.8-5.7
						c-8.7,0-15.1,7.2-15.1,16.2v0.1c0,9,6.3,16.2,15.1,16.2c5.6,0,9.2-2.2,13.1-5.9l5.2,5.2c-4.8,5-10,8.1-18.6,8.1
						C257.9,134.9,248,124.5,248,111.4z"/>
					<path class="st0" d="M294.8,117v-0.1c0-9.9,7-18,16.9-18c11,0,16.5,8.6,16.5,18.6c0,0.7-0.1,1.4-0.1,2.2h-25.4
						c0.9,5.6,4.8,8.8,9.9,8.8c3.9,0,6.6-1.4,9.4-4.1l4.6,4.1c-3.3,3.9-7.8,6.5-14.1,6.5C302.5,134.9,294.8,127.7,294.8,117z
						 M320.4,114.5c-0.5-5.1-3.5-9.1-8.8-9.1c-4.8,0-8.2,3.7-9,9.1H320.4z"/>
					<path class="st0" d="M336.2,99.6h7.9v5.3c2.2-3.2,5.4-6,10.8-6c7.8,0,12.3,5.2,12.3,13.2v22h-7.9v-19.6c0-5.4-2.7-8.4-7.4-8.4
						c-4.6,0-7.8,3.2-7.8,8.6v19.5h-7.9V99.6z"/>
					<path class="st0" d="M378.4,124.6v-18.2H374v-6.8h4.4v-9.5h7.9v9.5h9.3v6.8h-9.3v16.9c0,3.1,1.6,4.3,4.3,4.3
						c1.8,0,3.3-0.4,4.9-1.2v6.5c-2,1.1-4.1,1.8-7.1,1.8C382.5,134.7,378.4,132.2,378.4,124.6z"/>
					<path class="st0" d="M400.8,117v-0.1c0-9.9,7-18,16.9-18c11,0,16.5,8.6,16.5,18.6c0,0.7-0.1,1.4-0.1,2.2h-25.4
						c0.9,5.6,4.8,8.8,9.9,8.8c3.9,0,6.6-1.4,9.4-4.1l4.6,4.1c-3.3,3.9-7.8,6.5-14.1,6.5C408.5,134.9,400.8,127.7,400.8,117z
						 M426.4,114.5c-0.5-5.1-3.5-9.1-8.8-9.1c-4.8,0-8.2,3.7-9,9.1H426.4z"/>
					<path class="st0" d="M442.2,99.6h7.9v7.8c2.2-5.2,6.1-8.7,12.2-8.4v8.4h-0.5c-6.9,0-11.8,4.5-11.8,13.7v13.1h-7.9V99.6z"/>
					<path class="st0" d="M490.6,106.4h-4.4v-6.6h4.4v-2.6c0-3.8,1-6.7,2.8-8.5c1.8-1.8,4.4-2.7,7.8-2.7c2.7,0,4.6,0.4,6.4,0.9v6.7
						c-1.6-0.5-2.9-0.9-4.6-0.9c-3,0-4.6,1.6-4.6,5.2v1.9h9.2v6.5h-9v27.7h-7.9V106.4z"/>
					<path class="st0" d="M510.9,117.1v-0.1c0-9.9,7.8-18,18.4-18s18.4,8,18.4,17.9v0.1c0,9.8-7.8,18-18.5,18
						C518.6,134.9,510.9,126.9,510.9,117.1z M539.8,117.1v-0.1c0-6.1-4.4-11.1-10.6-11.1c-6.3,0-10.4,5-10.4,11v0.1
						c0,6,4.4,11.1,10.5,11.1C535.7,128,539.8,123,539.8,117.1z"/>
					<path class="st0" d="M555.7,99.6h7.9v7.8c2.2-5.2,6.1-8.7,12.2-8.4v8.4h-0.5c-6.9,0-11.8,4.5-11.8,13.7v13.1h-7.9V99.6z"/>
					<path class="st0" d="M603.3,88.4h8v19h21.8v-19h8v45.8h-8v-19.3h-21.8v19.3h-8V88.4z"/>
					<path class="st0" d="M650.2,117v-0.1c0-9.9,7-18,16.9-18c11,0,16.5,8.6,16.5,18.6c0,0.7-0.1,1.4-0.1,2.2h-25.4
						c0.9,5.6,4.8,8.8,9.9,8.8c3.9,0,6.6-1.4,9.4-4.1l4.6,4.1c-3.3,3.9-7.8,6.5-14.1,6.5C657.9,134.9,650.2,127.7,650.2,117z
						 M675.7,114.5c-0.5-5.1-3.5-9.1-8.8-9.1c-4.8,0-8.2,3.7-9,9.1H675.7z"/>
					<path class="st0" d="M689.3,124.2v-0.1c0-7.5,5.8-11.1,14.3-11.1c3.9,0,6.6,0.6,9.3,1.4v-0.9c0-4.9-3-7.5-8.6-7.5
						c-3.9,0-6.7,0.8-9.9,2.2l-2.1-6.2c3.8-1.7,7.5-2.8,13-2.8c5.2,0,9,1.4,11.4,3.9c2.5,2.5,3.7,6.1,3.7,10.7v20.5h-7.7v-4.3
						c-2.4,2.8-6,5-11.2,5C695,134.9,689.3,131.1,689.3,124.2z M712.9,121.7v-2.4c-2-0.8-4.7-1.4-7.8-1.4c-5.1,0-8.1,2.2-8.1,5.8
						v0.1c0,3.3,2.9,5.2,6.7,5.2C709,129.1,712.9,126.1,712.9,121.7z"/>
					<path class="st0" d="M730.4,86.4h7.9v47.7h-7.9V86.4z"/>
					<path class="st0" d="M750.3,124.6v-18.2h-4.4v-6.8h4.4v-9.5h7.9v9.5h9.3v6.8h-9.3v16.9c0,3.1,1.6,4.3,4.2,4.3
						c1.8,0,3.3-0.4,4.9-1.2v6.5c-2,1.1-4.1,1.8-7.1,1.8C754.4,134.7,750.3,132.2,750.3,124.6z"/>
					<path class="st0" d="M775.5,86.4h7.9v18.5c2.2-3.2,5.4-6,10.8-6c7.8,0,12.3,5.2,12.3,13.2v22h-7.9v-19.6c0-5.4-2.7-8.4-7.4-8.4
						c-4.6,0-7.8,3.2-7.8,8.6v19.5h-7.9V86.4z"/>
					<path class="st0" d="M839,99.6h8.2l-13.7,35.5c-2.7,7.1-5.8,9.7-11.4,9.7c-3.3,0-5.8-0.8-8.2-2.1l2.7-5.9
						c1.4,0.8,3,1.3,4.6,1.3c2.2,0,3.6-1,4.9-3.9l-14.4-34.6h8.5l9.7,25.6L839,99.6z"/>
					<path class="st0" d="M248,176.9v-0.1c0-13,9.7-23.7,23.6-23.7c8.4,0,13.5,2.9,17.9,7.1l-5.2,6c-3.7-3.4-7.6-5.7-12.8-5.7
						c-8.7,0-15.1,7.2-15.1,16.2v0.1c0,9,6.3,16.2,15.1,16.2c5.6,0,9.2-2.2,13.1-5.9l5.2,5.2c-4.8,5-10,8.1-18.6,8.1
						C257.9,200.5,248,190.1,248,176.9z"/>
					<path class="st0" d="M294.8,182.6v-0.1c0-9.9,7.8-18,18.4-18c10.6,0,18.4,8,18.4,17.9v0.1c0,9.8-7.8,18-18.5,18
						C302.6,200.5,294.8,192.4,294.8,182.6z M323.7,182.6v-0.1c0-6.1-4.4-11.1-10.6-11.1c-6.3,0-10.4,5-10.4,11v0.1
						c0,6,4.4,11.1,10.5,11.1C319.7,193.5,323.7,188.6,323.7,182.6z"/>
					<path class="st0" d="M339.7,165.2h7.9v5.2c2.2-3.1,5.2-6,10.5-6c5,0,8.5,2.4,10.3,6.1c2.7-3.7,6.4-6.1,11.6-6.1
						c7.5,0,12.1,4.8,12.1,13.2v22h-7.9v-19.6c0-5.5-2.6-8.4-7-8.4c-4.3,0-7.4,3-7.4,8.6v19.5H362V180c0-5.4-2.6-8.4-7-8.4
						c-4.4,0-7.4,3.3-7.4,8.6v19.5h-7.9V165.2z"/>
					<path class="st0" d="M401.8,165.2h7.9v5.2c2.2-3.1,5.2-6,10.5-6c5,0,8.5,2.4,10.3,6.1c2.7-3.7,6.4-6.1,11.6-6.1
						c7.5,0,12.1,4.8,12.1,13.2v22h-7.9v-19.6c0-5.5-2.6-8.4-7-8.4c-4.3,0-7.4,3-7.4,8.6v19.5h-7.9V180c0-5.4-2.6-8.4-7-8.4
						s-7.4,3.3-7.4,8.6v19.5h-7.9V165.2z"/>
					<path class="st0" d="M463.6,187.1v-22h7.9v19.6c0,5.4,2.7,8.4,7.4,8.4c4.6,0,7.8-3.1,7.8-8.5v-19.5h8v34.5h-8v-5.4
						c-2.2,3.3-5.4,6.1-10.8,6.1C468.1,200.4,463.6,195.2,463.6,187.1z"/>
					<path class="st0" d="M504.5,165.2h7.9v5.3c2.2-3.2,5.4-6,10.8-6c7.8,0,12.3,5.2,12.3,13.2v22h-7.9v-19.6c0-5.4-2.7-8.4-7.4-8.4
						c-4.6,0-7.8,3.2-7.8,8.6v19.5h-7.9V165.2z"/>
					<path class="st0" d="M545.2,152.3h8.5v7.5h-8.5V152.3z M545.5,165.2h7.9v34.5h-7.9V165.2z"/>
					<path class="st0" d="M565.4,190.1V172H561v-6.8h4.4v-9.5h7.9v9.5h9.3v6.8h-9.3v16.9c0,3.1,1.6,4.3,4.2,4.3
						c1.8,0,3.3-0.4,4.9-1.2v6.5c-2,1.1-4.1,1.8-7.1,1.8C569.5,200.3,565.4,197.7,565.4,190.1z"/>
					<path class="st0" d="M590.8,152.3h8.5v7.5h-8.5V152.3z M591.1,165.2h7.9v34.5h-7.9V165.2z"/>
					<path class="st0" d="M607.5,182.6v-0.1c0-9.9,7-18,16.9-18c11,0,16.5,8.6,16.5,18.6c0,0.7-0.1,1.4-0.1,2.2h-25.4
						c0.9,5.6,4.8,8.8,9.9,8.8c3.9,0,6.6-1.4,9.4-4.1l4.6,4.1c-3.3,3.9-7.8,6.5-14.1,6.5C615.2,200.5,607.5,193.2,607.5,182.6z
						 M633,180c-0.5-5.1-3.5-9.1-8.8-9.1c-4.8,0-8.2,3.7-9,9.1H633z"/>
					<path class="st0" d="M646,195.2l3.5-5.4c3.8,2.8,7.8,4.3,11.3,4.3c3.4,0,5.4-1.4,5.4-3.7v-0.1c0-2.7-3.7-3.6-7.7-4.8
						c-5.1-1.4-10.8-3.5-10.8-10.1v-0.1c0-6.5,5.4-10.5,12.3-10.5c4.3,0,9,1.5,12.7,3.9l-3.1,5.6c-3.3-2-6.9-3.3-9.7-3.3
						c-3.1,0-4.8,1.4-4.8,3.4v0.1c0,2.6,3.7,3.6,7.8,4.9c5,1.6,10.7,3.9,10.7,10.1v0.1c0,7.3-5.6,10.9-12.8,10.9
						C655.8,200.3,650.4,198.6,646,195.2z"/>
				</g>
			</g>
		</g>
		<g>
			<circle class="st2" cx="113.3" cy="113.3" r="113.3"/>
			<path class="st1" d="M113.7,0C51.1-0.2,0.2,50.4,0,112.9c-0.2,62.6,50.4,113.5,112.9,113.7c3.7,0,7.5-0.2,11.1-0.5
				c39.3-5.9,79-45,5.9-68.4c-9.4-3.6-19.1-7.3-26.5-12.5c-5.3-3.7-9.2-8.5-13-13.2c-7.7-9.5-15-18.5-32.8-19.8
				c-0.4,0-0.7-0.3-0.7-0.7c0-0.4,0.3-0.7,0.7-0.7c18.4-0.3,27,8.3,35.3,16.6c1.1,1.1,2.1,2.2,3.2,3.2c-6.9-14.9-6-32.4-5.2-49.3
				c0.8-16,1.6-32.5-4.1-46.6c-0.1-0.4,0-0.8,0.3-0.9c0.3-0.1,0.7,0,0.9,0.3c7.3,14,8.7,29.8,9.2,47.4c4.5-10.9,10.3-26.1,6.4-35.7
				c-1.4-3.5-4-5.9-7.8-7.5c-0.3-0.1-0.5-0.5-0.4-0.9c0.1-0.4,0.5-0.6,0.8-0.5c4.3,1.2,7.5,3.6,9.5,7.1c4.1,7.1,2.7,17.2,0.8,24.5
				c-0.6,2.3-1.2,4.5-1.8,6.8c-4.1,15.3-8,29.8-4.7,43.1c3.7,15.2,14.1,26,31.8,33c2.4,0.9,4.9,1.9,7.3,2.8
				c13.6,5.1,27.6,10.5,35.5,19.8c-1.5-17.2-7.4-30.9-18-41.9c-3.9-4-8-7.9-12-11.8c-2.1-2-4.2-4-6.3-6c-4.4-4.3-10.5-10.2-6.7-18.1
				c0.2-0.3,0.6-0.5,0.9-0.3c0.3,0.2,0.5,0.6,0.4,0.9c-2.7,6.8,4.3,12.4,9.9,16.9c1,0.8,2,1.6,2.9,2.4c3,2.6,10.2,7.7,10.2,7.7
				s-0.9-3.1-0.5-7.5c1-10.6,5.8-13.8,9.8-17c1.3-1,1.9-0.3,1,0.6c-3.4,3.4-6.9,7.9-6.8,14.2c-2.2,20.1,12.3,20.1,22.3,48.1
				c9.9,32.1,28.8,11.1,36.9-7.9c4.9-12.6,7.6-26.3,7.7-40.7C226.8,51.1,176.3,0.2,113.7,0z M69.1,126.9c-3.2,2.1-6.2,4.4-9.8,5.7
				c-5.2,2-11.5,0.2-15.8-3.6c3.3,0.3,6.8-0.1,9.9-1.3c4.6-1.7,8.8-4.5,13.7-5.3c3.4-0.6,7.3,0.2,10.6,1.3
				C74.6,123.6,71.7,125.2,69.1,126.9z M63.6,117.8c2.6,0.7,5.3,1.9,7.5,3.5c-6.5-0.9-11.7,3.1-17.4,5.3c-7,2.7-13.3,0.4-13.3,0.4
				c0.7-0.1,1.4-0.2,2.1-0.4c1.1-0.3,2-0.9,2.9-1.6c0.9-0.7,1.8-1.6,2.7-2.4c0.9-0.8,1.8-1.6,2.8-2.2
				C54.6,117.8,58.9,116.6,63.6,117.8z M70.1,42c0.6,0.3,1.3,0.4,1.9,0.5c0.7,0.1,1.4,0.1,2.2,0.1c0.7,0,1.4,0.1,2.1,0.2
				c2.7,0.5,5.1,1.7,6.7,4.2c0.9,1.4,1.5,3,1.9,4.7c-2.5-3.1-6.5-3.5-9.8-4.9c-4.2-1.7-6-5.4-6-5.4C69.4,41.5,69.7,41.8,70.1,42z
				 M86.8,55.4c-1.4-1.3-3.3-1.9-5.1-2.2c-2.3-0.4-4.5-0.7-6.7-1.6c-3.1-1.3-5.2-4.7-5.4-8.2c1.3,1.5,3,2.8,4.9,3.6
				c2.7,1.1,5.7,1.7,8.2,3.4C84.5,51.6,85.8,53.5,86.8,55.4z M61.5,81.7c1,0.5,2,0.6,3,0.6c1.1,0.1,2.2,0,3.4,0c1.1,0,2.2,0,3.3,0.2
				c4.3,0.6,8,2.4,10.6,6.1c1.4,2.1,2.5,4.6,3.2,7.1c-4-4.6-10.2-5.1-15.5-7c-6.6-2.5-9.6-8-9.6-8C60.3,81,60.9,81.4,61.5,81.7z
				 M88.2,101.5c-2.2-2-5.3-2.7-8.1-3.1c-3.5-0.5-7.1-0.7-10.5-2c-4.9-1.9-8.3-7-8.9-12.3c2.2,2.3,4.9,4.1,7.8,5.2
				c4.3,1.6,8.9,2.3,13,4.7C84.3,95.7,86.5,98.7,88.2,101.5z M115,34.3c2.1-1.2,4.4-1.7,6.6-2.4c1.8-0.5,3.7-1.3,5-2.9
				c-0.8,2-2,4.2-3.6,5.6c-2.4,2-5.3,2.9-8,4.5c-1.8,1-3.4,2.5-4.5,4.2C110.4,39.7,112,36,115,34.3z M115.7,39.4
				c3.3-1.8,7.3-2.8,9.4-6.2c-0.2,1.7-0.6,3.4-1.3,5c-1.3,2.7-3.5,4.3-6.3,5.1c-0.7,0.2-1.4,0.3-2.2,0.4c-0.7,0.1-1.5,0.2-2.2,0.4
				c-0.7,0.1-1.3,0.3-1.9,0.7c-0.4,0.3-0.7,0.5-1,0.8C110.3,45.6,111.6,41.7,115.7,39.4z M113.8,73.1c2.7-1.5,5.6-2.1,8.5-2.9
				c2.3-0.7,4.8-1.6,6.4-3.5c-1.1,2.6-2.6,5.3-4.7,7c-3.1,2.5-6.8,3.6-10.3,5.5c-2.3,1.2-4.3,3.1-5.9,5.3
				C107.7,79.9,109.9,75.3,113.8,73.1z M114,85.1c-0.9,0.1-1.9,0.2-2.8,0.4c-0.9,0.2-1.7,0.4-2.5,0.9c-0.5,0.3-0.9,0.7-1.3,1
				c0,0,1.8-5,7.1-7.8c4.2-2.3,9.3-3.4,12.1-7.7c-0.2,2.2-0.9,4.4-1.8,6.3c-1.7,3.4-4.6,5.4-8.1,6.4C115.9,84.9,115,85,114,85.1z
				 M148.6,127.3c-2.6-0.4-5.2,0.4-7.5,1.5c-2.9,1.3-5.6,2.7-8.7,3.3c-4.5,0.9-9.4-1.4-12.3-5.1c2.7,0.7,5.6,0.8,8.2,0.3
				c4-0.8,7.7-2.4,11.9-2.5C143,124.8,146,126,148.6,127.3z M137.8,120.6c2.1,0.9,4,2.3,5.7,3.8c-5.1-1.6-10,1-14.8,2
				c-6.1,1.2-10.9-1.5-10.9-1.5c0.6,0,1.2,0,1.7,0c0.9-0.1,1.7-0.5,2.5-0.9c0.9-0.5,1.7-1,2.5-1.6c0.8-0.5,1.7-1,2.6-1.4
				C130.5,119.4,134.2,119,137.8,120.6z M137.8,93.1c1.3-2.1,3.2-3.7,4.9-5.4c1.4-1.4,2.8-3,3.2-5c0.3,2.3,0.2,4.8-0.6,6.9
				c-1.2,3-3.5,5.3-5.2,7.9c-1.1,1.8-1.9,3.9-2.1,6.1C136.1,100.3,135.9,96.1,137.8,93.1z M144.4,100.1c-0.5,0.5-1.2,1-1.8,1.5
				c-0.6,0.5-1.3,0.9-1.8,1.4c-0.6,0.5-1.1,0.9-1.4,1.6c-0.2,0.4-0.4,0.8-0.5,1.2c0,0-0.6-4.3,2-8.4c2.1-3.3,5.3-6.1,5.6-10.3
				c0.7,1.6,1.1,3.5,1.2,5.2C147.9,95.4,146.5,98,144.4,100.1z M179.1,108.8c-1.9,2.8-4.7,4-7.8,4.5c-0.8,0.1-1.6,0.1-2.5,0.1
				c-0.8,0-1.7-0.1-2.5,0c-0.8,0-1.5,0.1-2.2,0.4c-0.4,0.2-0.9,0.5-1.3,0.7c0,0,2.2-4.1,7.1-5.8c3.9-1.4,8.5-1.7,11.5-5.1
				C181,105.4,180.2,107.2,179.1,108.8z M178.9,104.8c-3,1.8-6.4,2.2-9.6,3.4c-2.1,0.8-4.1,2.1-5.7,3.8c0.5-3.9,3-7.7,6.6-9
				c2.5-0.9,5.1-1.1,7.7-1.4c2.1-0.3,4.3-0.8,6-2.2C182.7,101.4,181,103.5,178.9,104.8z"/>
		</g>
	</g>
</g>
</svg>
